<?xml version="1.0" standalone="no"?>
<!DOCTYPE svg PUBLIC "-//W3C//DTD SVG 20010904//EN"
 "http://www.w3.org/TR/2001/REC-SVG-20010904/DTD/svg10.dtd">
<svg version="1.0" xmlns="http://www.w3.org/2000/svg"
 width="738.000000pt" height="738.000000pt" viewBox="0 0 738.000000 738.000000"
 preserveAspectRatio="xMidYMid meet">
<metadata>
Created by potrace 1.14, written by Peter Selinger 2001-2017
</metadata>
<g transform="translate(0.000000,738.000000) scale(0.100000,-0.100000)"
fill="#000000" stroke="none">
<path d="M3425 7208 c-320 -7 -372 -12 -605 -57 -190 -36 -541 -164 -725 -263
-46 -24 -159 -88 -183 -103 -10 -6 -39 -24 -67 -40 -94 -55 -382 -262 -525
-376 -85 -67 -236 -221 -390 -394 -30 -33 -67 -73 -84 -90 -32 -31 -168 -184
-219 -246 -80 -96 -223 -355 -285 -514 -8 -22 -19 -44 -23 -50 -4 -5 -12 -29
-18 -52 -6 -23 -31 -77 -55 -120 -56 -101 -98 -220 -167 -473 -47 -172 -72
-474 -63 -750 4 -118 7 -217 7 -220 -2 -5 14 -110 37 -250 6 -36 15 -85 20
-110 6 -25 17 -80 25 -124 9 -43 22 -94 31 -115 8 -20 26 -67 39 -106 13 -38
39 -99 58 -135 l34 -65 149 1 c143 0 151 1 200 28 42 23 63 27 139 29 88 2 92
3 159 47 38 24 112 67 165 95 81 42 101 58 128 99 18 28 40 75 49 105 26 83
76 178 119 227 6 6 19 23 30 38 11 16 37 49 58 75 20 25 54 79 74 119 40 80
51 89 117 98 34 5 67 -1 143 -24 200 -63 248 -74 325 -76 l77 -1 -39 -20 c-51
-26 -171 -143 -226 -221 -59 -83 -82 -137 -90 -217 -4 -37 -10 -67 -13 -67
-26 1 -123 34 -173 60 -84 44 -148 49 -232 19 -36 -12 -66 -26 -66 -30 0 -4
-9 -11 -20 -14 -11 -4 -67 -52 -124 -108 -90 -89 -116 -109 -207 -154 -57 -29
-137 -63 -178 -77 -48 -16 -87 -37 -110 -60 -37 -35 -106 -76 -128 -76 -18 0
-119 -46 -126 -57 -4 -6 -2 -23 3 -39 5 -16 18 -72 31 -124 47 -204 206 -458
431 -687 l80 -81 111 -7 c62 -3 152 -8 201 -10 l89 -3 56 40 c31 23 93 79 139
126 54 55 82 78 82 66 0 -22 85 -182 111 -209 15 -15 38 -21 102 -26 67 -5 96
-13 154 -43 83 -41 105 -44 150 -16 28 17 40 18 84 10 29 -6 94 -10 145 -10
l93 0 11 -57 c20 -106 37 -138 110 -207 81 -77 93 -98 109 -191 7 -38 16 -92
22 -118 5 -27 9 -61 9 -76 0 -16 18 -80 41 -142 55 -154 88 -269 82 -285 -8
-21 54 -46 202 -79 222 -49 410 -63 685 -53 201 8 249 13 475 53 83 14 175 30
205 34 126 18 453 117 595 181 22 9 94 39 160 65 282 110 490 239 820 504 176
141 296 264 512 522 34 41 80 94 103 119 64 69 142 178 180 250 18 36 44 81
56 101 22 36 92 177 134 274 12 28 37 94 56 148 19 54 45 125 59 158 44 108
115 379 115 439 0 25 4 92 10 150 5 58 15 159 21 225 5 66 16 186 24 267 19
209 5 547 -26 636 -12 35 -62 63 -184 102 -38 12 -74 26 -80 31 -5 5 -18 9
-28 9 -10 0 -52 15 -91 34 -124 59 -214 62 -401 14 -44 -12 -120 -26 -168 -33
-77 -10 -92 -16 -120 -43 -27 -26 -41 -32 -75 -32 -37 0 -48 -5 -76 -36 -33
-36 -34 -36 -57 -20 -34 23 -115 20 -217 -8 -48 -13 -118 -29 -157 -36 -38 -6
-82 -14 -98 -17 -20 -3 -32 -15 -42 -39 -8 -19 -29 -54 -48 -77 -18 -23 -40
-62 -47 -87 -18 -59 -27 -70 -60 -70 -28 0 -194 48 -242 70 -27 13 -27 13 -10
43 9 16 34 48 55 71 21 22 56 64 77 92 67 88 232 172 315 160 50 -8 161 -34
195 -46 49 -17 144 -20 200 -5 30 8 72 15 92 15 32 0 45 8 96 60 51 52 63 60
96 60 48 0 92 21 139 65 41 39 41 39 154 4 93 -28 292 -27 359 2 45 20 54 21
125 10 43 -6 90 -9 106 -5 74 16 78 23 38 66 -27 30 -46 75 -65 158 -18 76
-147 388 -211 508 -32 61 -147 224 -170 242 -4 3 -47 57 -95 121 -76 99 -114
148 -187 239 -7 8 -33 42 -58 75 -61 78 -363 371 -459 445 -25 19 -70 57 -100
84 -58 52 -201 148 -310 208 -36 19 -87 48 -115 63 -75 42 -223 115 -233 115
-5 0 -49 22 -98 50 -102 57 -175 84 -364 134 -219 58 -267 67 -363 72 -51 3
-108 9 -127 14 -133 34 -275 39 -765 28z m132 -3324 l90 -100 -34 -70 c-19
-38 -46 -96 -60 -129 -28 -66 -55 -128 -59 -134 -6 -7 -90 48 -117 77 -27 28
-77 154 -77 194 0 39 -23 108 -36 108 -7 0 -25 -25 -40 -55 -34 -68 -53 -81
-135 -87 -67 -6 -109 -23 -109 -46 0 -15 -60 -53 -80 -50 -8 2 -17 14 -20 28
-3 15 -14 26 -25 28 -11 1 -74 -16 -140 -38 -131 -45 -181 -58 -154 -41 8 6
38 18 65 27 27 9 60 24 74 33 14 10 70 32 125 50 55 18 127 45 160 61 113 53
170 77 233 95 34 10 62 24 62 31 0 7 -18 15 -41 19 -22 4 -43 14 -46 22 -10
26 39 105 106 171 l64 63 52 -79 c29 -43 93 -123 142 -178z"/>
</g>
</svg>
